<svg width="44" height="44" viewBox="0 0 44 44" fill="none" xmlns="http://www.w3.org/2000/svg">
<path d="M15.5834 26.125C15.5834 29.645 18.48 32.5417 22 32.5417C25.52 32.5417 28.4167 29.645 28.4167 26.125" stroke="black" stroke-width="3" stroke-miterlimit="10" stroke-linecap="round" stroke-linejoin="round"/>
<path d="M16.1517 3.66675L9.51501 10.3217" stroke="black" stroke-width="3" stroke-miterlimit="10" stroke-linecap="round" stroke-linejoin="round"/>
<path d="M27.8484 3.66675L34.4851 10.3217" stroke="black" stroke-width="3" stroke-miterlimit="10" stroke-linecap="round" stroke-linejoin="round"/>
<path d="M3.66663 14.3918C3.66663 11.0001 5.48163 10.7251 7.73663 10.7251H36.2633C38.5183 10.7251 40.3333 11.0001 40.3333 14.3918C40.3333 18.3334 38.5183 18.0584 36.2633 18.0584H7.73663C5.48163 18.0584 3.66663 18.3334 3.66663 14.3918Z" stroke="black" stroke-width="3"/>
<path d="M6.41663 18.3333L9.00163 34.1732C9.58829 37.7299 11 40.3332 16.2433 40.3332H27.2983C33 40.3332 33.8433 37.8399 34.5033 34.3933L37.5833 18.3333" stroke="black" stroke-width="3" stroke-linecap="round"/>
</svg>
