<svg width="24" height="25" viewBox="0 0 24 25" fill="none" xmlns="http://www.w3.org/2000/svg">
<path d="M19.24 6.50193H18.84L15.46 3.12193C15.19 2.85193 14.75 2.85193 14.47 3.12193C14.2 3.39193 14.2 3.83193 14.47 4.11193L16.86 6.50193H7.14L9.53 4.11193C9.8 3.84193 9.8 3.40193 9.53 3.12193C9.26 2.85193 8.82 2.85193 8.54 3.12193L5.17 6.50193H4.77C3.87 6.50193 2 6.50193 2 9.06193C2 10.0319 2.2 10.6719 2.62 11.0919C2.86 11.3419 3.15 11.4719 3.46 11.5419C3.75 11.6119 4.06 11.6219 4.36 11.6219H19.64C19.95 11.6219 20.24 11.6019 20.52 11.5419C21.36 11.3419 22 10.7419 22 9.06193C22 6.50193 20.13 6.50193 19.24 6.50193Z" fill="#D6F066"/>
<path d="M19.05 12.9219H4.87003C4.25003 12.9219 3.78003 13.4719 3.88003 14.0819L4.72003 19.2219C5.00003 20.9419 5.75003 22.9219 9.08003 22.9219H14.69C18.06 22.9219 18.66 21.2319 19.02 19.3419L20.03 14.1119C20.15 13.4919 19.68 12.9219 19.05 12.9219ZM12 20.4219C9.66003 20.4219 7.75003 18.5119 7.75003 16.1719C7.75003 15.7619 8.09003 15.4219 8.50003 15.4219C8.91003 15.4219 9.25003 15.7619 9.25003 16.1719C9.25003 17.6919 10.48 18.9219 12 18.9219C13.52 18.9219 14.75 17.6919 14.75 16.1719C14.75 15.7619 15.09 15.4219 15.5 15.4219C15.91 15.4219 16.25 15.7619 16.25 16.1719C16.25 18.5119 14.34 20.4219 12 20.4219Z" fill="#D6F066"/>
</svg>
