<svg width="48" height="48" viewBox="0 0 48 48" fill="none" xmlns="http://www.w3.org/2000/svg">
<path d="M13.52 44H34.48C40 44 42.2 40.62 42.46 36.5L43.5 19.98C43.78 15.66 40.34 12 36 12C34.78 12 33.66 11.3 33.1 10.22L31.66 7.32C30.74 5.5 28.34 4 26.3 4H21.72C19.66 4 17.26 5.5 16.34 7.32L14.9 10.22C14.34 11.3 13.22 12 12 12C7.65997 12 4.21997 15.66 4.49997 19.98L5.53997 36.5C5.77997 40.62 7.99997 44 13.52 44Z" stroke="#D6F066" stroke-width="1.5" stroke-linecap="round" stroke-linejoin="round"/>
<path d="M21 16H27" stroke="#D6F066" stroke-width="1.5" stroke-linecap="round" stroke-linejoin="round"/>
<path d="M24 36C27.58 36 30.5 33.08 30.5 29.5C30.5 25.92 27.58 23 24 23C20.42 23 17.5 25.92 17.5 29.5C17.5 33.08 20.42 36 24 36Z" stroke="#D6F066" stroke-width="1.5" stroke-linecap="round" stroke-linejoin="round"/>
</svg>
