<svg width="24" height="25" viewBox="0 0 24 25" fill="none" xmlns="http://www.w3.org/2000/svg">
<path d="M20.68 14.8319V14.8219C19.8 13.8919 18.57 13.3219 17.2 13.3219C14.55 13.3219 12.4 15.4719 12.4 18.1219C12.4 19.3519 12.87 20.4719 13.63 21.3219C14.51 22.3019 15.78 22.9219 17.2 22.9219C19.85 22.9219 22 20.7719 22 18.1219C22 16.8519 21.5 15.6919 20.68 14.8319ZM18.99 18.9319H17.95V20.0219C17.95 20.4319 17.61 20.7719 17.2 20.7719C16.79 20.7719 16.45 20.4319 16.45 20.0219V18.9319H15.41C14.99 18.9319 14.66 18.6019 14.66 18.1819C14.66 17.7719 14.98 17.4419 15.4 17.4319H16.45V16.4319C16.45 16.4119 16.45 16.3919 16.46 16.3719C16.48 15.9919 16.81 15.6819 17.2 15.6819C17.6 15.6819 17.93 16.0019 17.95 16.4019V17.4319H18.99C19.41 17.4319 19.74 17.7719 19.74 18.1819C19.74 18.6019 19.41 18.9319 18.99 18.9319Z" fill="#D6F066"/>
<path d="M22 9.65189C22 10.8419 21.81 11.9419 21.48 12.9619C21.42 13.1719 21.17 13.2319 20.99 13.1019C19.9 12.2919 18.57 11.8619 17.2 11.8619C13.73 11.8619 10.9 14.6919 10.9 18.1619C10.9 19.2419 11.18 20.3019 11.71 21.2419C11.87 21.5219 11.68 21.8819 11.38 21.7719C8.97 20.9519 4.1 17.9619 2.52 12.9619C2.19 11.9419 2 10.8419 2 9.65189C2 6.56189 4.49 4.06189 7.56 4.06189C9.37 4.06189 10.99 4.94189 12 6.29189C13.01 4.94189 14.63 4.06189 16.44 4.06189C19.51 4.06189 22 6.56189 22 9.65189Z" fill="#D6F066"/>
</svg>
