<svg width="48" height="48" viewBox="0 0 48 48" fill="none" xmlns="http://www.w3.org/2000/svg">
<path d="M7 41C8.66 42.66 11.34 42.66 13 41L39 15C40.66 13.34 40.66 10.66 39 9C37.34 7.34 34.66 7.34 33 9L7 35C5.34 36.66 5.34 39.34 7 41Z" stroke="#D6F066" stroke-width="1.5" stroke-linecap="round" stroke-linejoin="round"/>
<path d="M36.02 17.98L30.02 11.98" stroke="#D6F066" stroke-width="1.5" stroke-linecap="round" stroke-linejoin="round"/>
<path d="M17 4.88L20 4L19.12 7L20 10L17 9.12L14 10L14.88 7L14 4L17 4.88Z" stroke="#D6F066" stroke-linecap="round" stroke-linejoin="round"/>
<path d="M9 16.88L12 16L11.12 19L12 22L9 21.12L6 22L6.88 19L6 16L9 16.88Z" stroke="#D6F066" stroke-linecap="round" stroke-linejoin="round"/>
<path d="M39 26.88L42 26L41.12 29L42 32L39 31.12L36 32L36.88 29L36 26L39 26.88Z" stroke="#D6F066" stroke-linecap="round" stroke-linejoin="round"/>
</svg>
