<svg width="44" height="44" viewBox="0 0 44 44" fill="none" xmlns="http://www.w3.org/2000/svg">
<path d="M40.3333 11.4583V20.8082C40.3333 23.1366 39.5633 25.0983 38.1883 26.4549C36.8316 27.8299 34.87 28.5999 32.5416 28.5999V31.9182C32.5416 33.1649 31.1483 33.9166 30.1216 33.22L28.3433 32.0466C28.5083 31.4783 28.5816 30.8549 28.5816 30.1949V22.7333C28.5816 18.9933 26.0883 16.5 22.3483 16.5H9.89995C9.64328 16.5 9.40496 16.5183 9.16663 16.5367V11.4583C9.16663 6.78329 12.2833 3.66663 16.9583 3.66663H32.5416C37.2166 3.66663 40.3333 6.78329 40.3333 11.4583Z" stroke="black" stroke-width="3" stroke-miterlimit="10" stroke-linecap="round" stroke-linejoin="round"/>
<path d="M28.5816 22.7334V30.1949C28.5816 30.8549 28.5083 31.4783 28.3433 32.0466C27.665 34.7416 25.4283 36.4283 22.3483 36.4283H17.3616L11.825 40.1133C11 40.6817 9.89995 40.0767 9.89995 39.0867V36.4283C8.02995 36.4283 6.47163 35.805 5.38996 34.7233C4.28996 33.6233 3.66663 32.0649 3.66663 30.1949V22.7334C3.66663 19.25 5.82996 16.8484 9.16663 16.5367C9.40496 16.5184 9.64328 16.5 9.89995 16.5H22.3483C26.0883 16.5 28.5816 18.9934 28.5816 22.7334Z" stroke="black" stroke-width="3" stroke-miterlimit="10" stroke-linecap="round" stroke-linejoin="round"/>
</svg>
