<svg width="25" height="25" viewBox="0 0 25 25" fill="none" xmlns="http://www.w3.org/2000/svg">
<path d="M12.0015 2.92188C9.38146 2.92188 7.25146 5.05188 7.25146 7.67188C7.25146 10.2419 9.26147 12.3219 11.8815 12.4119C11.9615 12.4019 12.0415 12.4019 12.1015 12.4119C12.1215 12.4119 12.1315 12.4119 12.1515 12.4119C12.1615 12.4119 12.1615 12.4119 12.1715 12.4119C14.7315 12.3219 16.7415 10.2419 16.7515 7.67188C16.7515 5.05188 14.6215 2.92188 12.0015 2.92188Z" fill="#D6F066"/>
<path d="M17.0814 15.0719C14.2914 13.2119 9.74143 13.2119 6.93143 15.0719C5.66143 15.9219 4.96143 17.0719 4.96143 18.3019C4.96143 19.5319 5.66143 20.6719 6.92143 21.5119C8.32143 22.4519 10.1614 22.9219 12.0014 22.9219C13.8414 22.9219 15.6814 22.4519 17.0814 21.5119C18.3414 20.6619 19.0414 19.5219 19.0414 18.2819C19.0314 17.0519 18.3414 15.9119 17.0814 15.0719Z" fill="#D6F066"/>
</svg>
