<svg width="44" height="44" viewBox="0 0 44 44" fill="none" xmlns="http://www.w3.org/2000/svg">
<path d="M22 27.5C25.0376 27.5 27.5 25.0376 27.5 22C27.5 18.9624 25.0376 16.5 22 16.5C18.9624 16.5 16.5 18.9624 16.5 22C16.5 25.0376 18.9624 27.5 22 27.5Z" stroke="black" stroke-width="3" stroke-miterlimit="10" stroke-linecap="round" stroke-linejoin="round"/>
<path d="M3.66663 23.6133V20.3866C3.66663 18.48 5.22496 16.9033 7.14996 16.9033C10.4683 16.9033 11.825 14.5566 10.1566 11.6783C9.20329 10.0283 9.77162 7.8833 11.44 6.92996L14.6116 5.11496C16.06 4.2533 17.93 4.76663 18.7916 6.21497L18.9933 6.5633C20.6433 9.44163 23.3566 9.44163 25.025 6.5633L25.2266 6.21497C26.0883 4.76663 27.9583 4.2533 29.4066 5.11496L32.5783 6.92996C34.2466 7.8833 34.815 10.0283 33.8616 11.6783C32.1933 14.5566 33.55 16.9033 36.8683 16.9033C38.775 16.9033 40.3516 18.4616 40.3516 20.3866V23.6133C40.3516 25.52 38.7933 27.0966 36.8683 27.0966C33.55 27.0966 32.1933 29.4433 33.8616 32.3216C34.815 33.99 34.2466 36.1166 32.5783 37.07L29.4066 38.885C27.9583 39.7466 26.0883 39.2333 25.2266 37.785L25.025 37.4366C23.375 34.5583 20.6616 34.5583 18.9933 37.4366L18.7916 37.785C17.93 39.2333 16.06 39.7466 14.6116 38.885L11.44 37.07C9.77162 36.1166 9.20329 33.9716 10.1566 32.3216C11.825 29.4433 10.4683 27.0966 7.14996 27.0966C5.22496 27.0966 3.66663 25.52 3.66663 23.6133Z" stroke="black" stroke-width="3" stroke-miterlimit="10" stroke-linecap="round" stroke-linejoin="round"/>
</svg>
