<svg width="24" height="25" viewBox="0 0 24 25" fill="none" xmlns="http://www.w3.org/2000/svg">
<path d="M5.29998 15.3819C5.64998 15.7319 5.84998 16.4319 5.73998 16.9219L5.21998 19.1719C5.17998 19.3719 4.9071 21.4822 5.04998 21.8719C5.15998 22.1719 5.32998 22.4019 5.55998 22.5719C6.16998 23.0219 7.11998 22.9119 8.22998 22.2619L11.16 20.5219C11.62 20.2519 12.38 20.2519 12.84 20.5219L15.77 22.2619C16.43 22.6519 17.03 22.8419 17.54 22.8419C17.89 22.8419 18.19 22.7519 18.44 22.5719C19.06 22.1219 19.24 21.1819 18.95 19.9319L18.26 16.9219C18.14 16.4319 18.34 15.7419 18.7 15.3819L21.12 12.9519C21.88 12.1919 22.18 11.3819 21.96 10.6819C21.73 9.98187 21.02 9.50187 19.96 9.32187L18.95 9.15187C18.32 9.04187 16.62 8.76188 16.33 8.59188C16.04 8.42188 15.77 8.17188 15.64 7.91187L13.92 4.46187C13.42 3.47187 12.74 2.92188 12 2.92188C11.26 2.92188 10.58 3.47187 10.08 4.46187L8.35998 7.91187C8.14998 8.32187 7.59998 8.72188 7.14998 8.80188L4.02998 9.32187C2.96998 9.50187 2.25998 9.98188 2.02998 10.6819C1.80998 11.3819 2.10998 12.1919 2.86998 12.9519L5.29998 15.3819Z" fill="#D6F066"/>
</svg>
