<svg width="44" height="44" viewBox="0 0 44 44" fill="none" xmlns="http://www.w3.org/2000/svg">
<path d="M25.1716 6.43497L28.3983 12.8883C28.8383 13.7866 30.0116 14.6483 31.0016 14.8133L36.85 15.785C40.59 16.4083 41.47 19.1216 38.775 21.7983L34.2283 26.345C33.4583 27.115 33.0366 28.6 33.275 29.6633L34.5766 35.2916C35.6033 39.7466 33.2383 41.47 29.2966 39.1416L23.815 35.8966C22.825 35.31 21.1933 35.31 20.185 35.8966L14.7033 39.1416C10.78 41.47 8.39662 39.7283 9.42329 35.2916L10.725 29.6633C10.9633 28.6 10.5416 27.115 9.77162 26.345L5.22496 21.7983C2.54829 19.1216 3.40996 16.4083 7.14996 15.785L12.9983 14.8133C13.97 14.6483 15.1433 13.7866 15.5833 12.8883L18.81 6.43497C20.57 2.9333 23.43 2.9333 25.1716 6.43497Z" stroke="black" stroke-width="3" stroke-linecap="round" stroke-linejoin="round"/>
</svg>
