<svg width="44" height="44" viewBox="0 0 44 44" fill="none" xmlns="http://www.w3.org/2000/svg">
<path d="M7.64484 28.05L15.9498 36.355C19.3598 39.765 24.8965 39.765 28.3248 36.355L36.3732 28.3066C39.7832 24.8966 39.7832 19.36 36.3732 15.9316L28.0498 7.64497C26.3082 5.9033 23.9065 4.9683 21.4498 5.09663L12.2832 5.53663C8.61651 5.70163 5.70151 8.61663 5.51818 12.265L5.07818 21.4316C4.96818 23.9066 5.90318 26.3083 7.64484 28.05Z" stroke="black" stroke-width="3" stroke-linecap="round" stroke-linejoin="round"/>
<path d="M17.4165 22.0002C19.9478 22.0002 21.9998 19.9481 21.9998 17.4168C21.9998 14.8855 19.9478 12.8335 17.4165 12.8335C14.8852 12.8335 12.8331 14.8855 12.8331 17.4168C12.8331 19.9481 14.8852 22.0002 17.4165 22.0002Z" stroke="black" stroke-width="3" stroke-linecap="round"/>
</svg>
